<?xml version="1.0" encoding="utf-8"?>
<svg viewBox="199.7455 -5.8351 124.4861 149.236" xmlns="http://www.w3.org/2000/svg">
  <defs>
    <linearGradient x1="43.416%" y1="40.159%" x2="72.78%" y2="78.49%" id="linearGradient-1">
      <stop stop-color="#3023AE" offset="0"/>
      <stop stop-color="#C86DD7" offset="1"/>
    </linearGradient>
    <linearGradient x1="72.086%" y1="100%" x2="37.911%" y2="10.906%" id="linearGradient-2">
      <stop stop-color="#3023AE" offset="0"/>
      <stop stop-color="#C86DD7" offset="1"/>
    </linearGradient>
  </defs>
  <g id="root" stroke="none" stroke-width="1" fill="none" fill-rule="evenodd" transform="matrix(1, 0, 0, 1, 184.24460113413042, -10.835092706011125)">
    <path d="M107 5c2.104 5.78 7.881 14.344 1.131 30.26c-6.27 14.783 -20.274 27.125 -61.563 27.125c-33.261 0 -39.281 25.916 -20.618 35.93c2.379 1.276 0.698 9.28 6.246 14.685c5.453 5.313 12.48 6.126 14.804 8.488c1.052 1.068 6.05 -2.26 6.47 -1.508c3.437 6.173 6.269 11.259 8.495 15.256c2.35 4.222 5.878 10.556 10.58 19c-37.602 0 -38.226 -39.81 3 -39.81c41.289 0 55.293 -12.345 61.563 -27.126c6.75 -15.92 0.858 -37.185 -9.663 -53.481l-20.445 -28.819z" id="shape" fill="url(#linearGradient-1)"/>
    <path d="M107 5c8.45 15.998 17.54 31.69 10.79 47.604c-6.27 14.784 -20.274 27.126 -61.563 27.126c-41.226 0 -40.602 39.813 -3 39.813l9.657 17.346c-37.599 0 -38.223 -39.81 3.003 -39.81c41.29 0 55.293 -12.345 61.563 -27.126c6.75 -15.918 0 -33.761 -12 -52.314l-8.45 -12.639z" id="shape" fill="url(#linearGradient-2)"/>
    <g id="Group" transform="translate(40.000000, 80.000000)">
      <rect id="Rectangle-61" x="0" y="0" width="80" height="24"/>
      <text id="headerText" font-family="Heebo" font-size="24" font-style="normal" font-weight="700" line-spacing="24" fill="#FFF" data-text-alignment="C" style="white-space: pre;"><tspan x="40" y="132"/></text>
    </g>
    <g id="Group-2" transform="translate(40.000000, 65.000000)">
      <rect id="Rectangle-64" x="0" y="0" width="80" height="13"/>
      <text id="captionText" font-family="Heebo" font-size="12" font-weight="500" line-spacing="12" fill="#FFF" fill-opacity=".616" data-text-alignment="c" font-style="normal" style="white-space: pre;"><tspan x="40" y="66.5"/></text>
    </g>
  </g>
</svg>