<svg xmlns="http://www.w3.org/2000/svg" viewBox="5.6546 5.0156 31.6861 69.1954">
  <path style="fill:#003399;fill-opacity:1;fill-rule:evenodd;stroke:#003399;stroke-width:1px;stroke-linecap:butt;stroke-linejoin:miter;stroke-opacity:1" d="M 42.868685,10.363284 L 42.868685,79.30619 L 16.327325,79.30619 C 13.202305,79.2944 11.615076,77.74483 11.182541,75.04056 L 11.276562,15.666585 C 11.655475,12.509964 13.25521,10.574165 16.327325,10.110746 L 42.868685,10.363284 z " id="path3214" transform="matrix(1, 0, 0, 1, -5.527920722961426, -5.095195293426514)"/>
  <g style="fill:#ffcc00" transform="matrix(1.613844394683838, 0, 0, 1.613844394683838, 21.809260775702853, 26.957322121449053)" id="g3313">
    <g id="use3315" transform="matrix(1, 0, 0, 1, 0, -6)">
      <g>
        <path transform="matrix(0.9510565,0.309017,-0.309017,0.9510565,0,-1)" d="M 0,0 L 0,1 L 0.5,1 L 0,0 z "/>
        <path transform="matrix(-0.9510565400123596, 0.30901703238487244, 0.30901703238487244, 0.9510565400123596, 0, -1.0000000149011612)" d="M 0,0 L 0,1 L 0.5,1 L 0,0 z "/>
      </g>
      <g>
        <g transform="matrix(0.30901703238487244, 0.9510565400123596, -0.9510565400123596, 0.30901703238487244, 0, 0)">
          <path transform="matrix(0.9510565,0.309017,-0.309017,0.9510565,0,-1)" d="M 0,0 L 0,1 L 0.5,1 L 0,0 z "/>
          <path transform="matrix(-0.9510565400123596, 0.30901703238487244, 0.30901703238487244, 0.9510565400123596, 0, -1.0000000149011612)" d="M 0,0 L 0,1 L 0.5,1 L 0,0 z "/>
        </g>
        <g transform="matrix(-0.80901700258255, 0.5877853035926819, -0.5877853035926819, -0.80901700258255, 0, 0)">
          <path transform="matrix(0.9510565,0.309017,-0.309017,0.9510565,0,-1)" d="M 0,0 L 0,1 L 0.5,1 L 0,0 z "/>
          <path transform="matrix(-0.9510565400123596, 0.30901703238487244, 0.30901703238487244, 0.9510565400123596, 0, -1.0000000149011612)" d="M 0,0 L 0,1 L 0.5,1 L 0,0 z "/>
        </g>
      </g>
      <g transform="matrix(-1, 0, 0, 1, 0, 0)">
        <g transform="matrix(0.30901703238487244, 0.9510565400123596, -0.9510565400123596, 0.30901703238487244, 0, 0)">
          <path transform="matrix(0.9510565,0.309017,-0.309017,0.9510565,0,-1)" d="M 0,0 L 0,1 L 0.5,1 L 0,0 z "/>
          <path transform="matrix(-0.9510565400123596, 0.30901703238487244, 0.30901703238487244, 0.9510565400123596, 0, -1.0000000149011612)" d="M 0,0 L 0,1 L 0.5,1 L 0,0 z "/>
        </g>
        <g transform="matrix(-0.80901700258255, 0.5877853035926819, -0.5877853035926819, -0.80901700258255, 0, 0)">
          <path transform="matrix(0.9510565,0.309017,-0.309017,0.9510565,0,-1)" d="M 0,0 L 0,1 L 0.5,1 L 0,0 z "/>
          <path transform="matrix(-0.9510565400123596, 0.30901703238487244, 0.30901703238487244, 0.9510565400123596, 0, -1.0000000149011612)" d="M 0,0 L 0,1 L 0.5,1 L 0,0 z "/>
        </g>
      </g>
    </g>
    <g id="use3317" transform="matrix(1, 0, 0, 1, 0, 6)">
      <g>
        <path transform="matrix(0.9510565,0.309017,-0.309017,0.9510565,0,-1)" d="M 0,0 L 0,1 L 0.5,1 L 0,0 z "/>
        <path transform="matrix(-0.9510565400123596, 0.30901703238487244, 0.30901703238487244, 0.9510565400123596, 0, -1.0000000149011612)" d="M 0,0 L 0,1 L 0.5,1 L 0,0 z "/>
      </g>
      <g>
        <g transform="matrix(0.30901703238487244, 0.9510565400123596, -0.9510565400123596, 0.30901703238487244, 0, 0)">
          <path transform="matrix(0.9510565,0.309017,-0.309017,0.9510565,0,-1)" d="M 0,0 L 0,1 L 0.5,1 L 0,0 z "/>
          <path transform="matrix(-0.9510565400123596, 0.30901703238487244, 0.30901703238487244, 0.9510565400123596, 0, -1.0000000149011612)" d="M 0,0 L 0,1 L 0.5,1 L 0,0 z "/>
        </g>
        <g transform="matrix(-0.80901700258255, 0.5877853035926819, -0.5877853035926819, -0.80901700258255, 0, 0)">
          <path transform="matrix(0.9510565,0.309017,-0.309017,0.9510565,0,-1)" d="M 0,0 L 0,1 L 0.5,1 L 0,0 z "/>
          <path transform="matrix(-0.9510565400123596, 0.30901703238487244, 0.30901703238487244, 0.9510565400123596, 0, -1.0000000149011612)" d="M 0,0 L 0,1 L 0.5,1 L 0,0 z "/>
        </g>
      </g>
      <g transform="matrix(-1, 0, 0, 1, 0, 0)">
        <g transform="matrix(0.30901703238487244, 0.9510565400123596, -0.9510565400123596, 0.30901703238487244, 0, 0)">
          <path transform="matrix(0.9510565,0.309017,-0.309017,0.9510565,0,-1)" d="M 0,0 L 0,1 L 0.5,1 L 0,0 z "/>
          <path transform="matrix(-0.9510565400123596, 0.30901703238487244, 0.30901703238487244, 0.9510565400123596, 0, -1.0000000149011612)" d="M 0,0 L 0,1 L 0.5,1 L 0,0 z "/>
        </g>
        <g transform="matrix(-0.80901700258255, 0.5877853035926819, -0.5877853035926819, -0.80901700258255, 0, 0)">
          <path transform="matrix(0.9510565,0.309017,-0.309017,0.9510565,0,-1)" d="M 0,0 L 0,1 L 0.5,1 L 0,0 z "/>
          <path transform="matrix(-0.9510565400123596, 0.30901703238487244, 0.30901703238487244, 0.9510565400123596, 0, -1.0000000149011612)" d="M 0,0 L 0,1 L 0.5,1 L 0,0 z "/>
        </g>
      </g>
    </g>
    <g id="l">
      <g id="use3320" transform="matrix(1, 0, 0, 1, -6, 0)">
        <g>
          <path transform="matrix(0.9510565,0.309017,-0.309017,0.9510565,0,-1)" d="M 0,0 L 0,1 L 0.5,1 L 0,0 z "/>
          <path transform="matrix(-0.9510565400123596, 0.30901703238487244, 0.30901703238487244, 0.9510565400123596, 0, -1.0000000149011612)" d="M 0,0 L 0,1 L 0.5,1 L 0,0 z "/>
        </g>
        <g>
          <g transform="matrix(0.30901703238487244, 0.9510565400123596, -0.9510565400123596, 0.30901703238487244, 0, 0)">
            <path transform="matrix(0.9510565,0.309017,-0.309017,0.9510565,0,-1)" d="M 0,0 L 0,1 L 0.5,1 L 0,0 z "/>
            <path transform="matrix(-0.9510565400123596, 0.30901703238487244, 0.30901703238487244, 0.9510565400123596, 0, -1.0000000149011612)" d="M 0,0 L 0,1 L 0.5,1 L 0,0 z "/>
          </g>
          <g transform="matrix(-0.80901700258255, 0.5877853035926819, -0.5877853035926819, -0.80901700258255, 0, 0)">
            <path transform="matrix(0.9510565,0.309017,-0.309017,0.9510565,0,-1)" d="M 0,0 L 0,1 L 0.5,1 L 0,0 z "/>
            <path transform="matrix(-0.9510565400123596, 0.30901703238487244, 0.30901703238487244, 0.9510565400123596, 0, -1.0000000149011612)" d="M 0,0 L 0,1 L 0.5,1 L 0,0 z "/>
          </g>
        </g>
        <g transform="matrix(-1, 0, 0, 1, 0, 0)">
          <g transform="matrix(0.30901703238487244, 0.9510565400123596, -0.9510565400123596, 0.30901703238487244, 0, 0)">
            <path transform="matrix(0.9510565,0.309017,-0.309017,0.9510565,0,-1)" d="M 0,0 L 0,1 L 0.5,1 L 0,0 z "/>
            <path transform="matrix(-0.9510565400123596, 0.30901703238487244, 0.30901703238487244, 0.9510565400123596, 0, -1.0000000149011612)" d="M 0,0 L 0,1 L 0.5,1 L 0,0 z "/>
          </g>
          <g transform="matrix(-0.80901700258255, 0.5877853035926819, -0.5877853035926819, -0.80901700258255, 0, 0)">
            <path transform="matrix(0.9510565,0.309017,-0.309017,0.9510565,0,-1)" d="M 0,0 L 0,1 L 0.5,1 L 0,0 z "/>
            <path transform="matrix(-0.9510565400123596, 0.30901703238487244, 0.30901703238487244, 0.9510565400123596, 0, -1.0000000149011612)" d="M 0,0 L 0,1 L 0.5,1 L 0,0 z "/>
          </g>
        </g>
      </g>
      <g id="use3322" transform="matrix(-0.80901700258255, -0.5877853035926819, 0.5877853035926819, -0.80901700258255, -3.0000000447034836, -5.196152287664297)">
        <g>
          <path transform="matrix(0.9510565,0.309017,-0.309017,0.9510565,0,-1)" d="M 0,0 L 0,1 L 0.5,1 L 0,0 z "/>
          <path transform="matrix(-0.9510565400123596, 0.30901703238487244, 0.30901703238487244, 0.9510565400123596, 0, -1.0000000149011612)" d="M 0,0 L 0,1 L 0.5,1 L 0,0 z "/>
        </g>
        <g>
          <g transform="matrix(0.30901703238487244, 0.9510565400123596, -0.9510565400123596, 0.30901703238487244, 0, 0)">
            <path transform="matrix(0.9510565,0.309017,-0.309017,0.9510565,0,-1)" d="M 0,0 L 0,1 L 0.5,1 L 0,0 z "/>
            <path transform="matrix(-0.9510565400123596, 0.30901703238487244, 0.30901703238487244, 0.9510565400123596, 0, -1.0000000149011612)" d="M 0,0 L 0,1 L 0.5,1 L 0,0 z "/>
          </g>
          <g transform="matrix(-0.80901700258255, 0.5877853035926819, -0.5877853035926819, -0.80901700258255, 0, 0)">
            <path transform="matrix(0.9510565,0.309017,-0.309017,0.9510565,0,-1)" d="M 0,0 L 0,1 L 0.5,1 L 0,0 z "/>
            <path transform="matrix(-0.9510565400123596, 0.30901703238487244, 0.30901703238487244, 0.9510565400123596, 0, -1.0000000149011612)" d="M 0,0 L 0,1 L 0.5,1 L 0,0 z "/>
          </g>
        </g>
        <g transform="matrix(-1, 0, 0, 1, 0, 0)">
          <g transform="matrix(0.30901703238487244, 0.9510565400123596, -0.9510565400123596, 0.30901703238487244, 0, 0)">
            <path transform="matrix(0.9510565,0.309017,-0.309017,0.9510565,0,-1)" d="M 0,0 L 0,1 L 0.5,1 L 0,0 z "/>
            <path transform="matrix(-0.9510565400123596, 0.30901703238487244, 0.30901703238487244, 0.9510565400123596, 0, -1.0000000149011612)" d="M 0,0 L 0,1 L 0.5,1 L 0,0 z "/>
          </g>
          <g transform="matrix(-0.80901700258255, 0.5877853035926819, -0.5877853035926819, -0.80901700258255, 0, 0)">
            <path transform="matrix(0.9510565,0.309017,-0.309017,0.9510565,0,-1)" d="M 0,0 L 0,1 L 0.5,1 L 0,0 z "/>
            <path transform="matrix(-0.9510565400123596, 0.30901703238487244, 0.30901703238487244, 0.9510565400123596, 0, -1.0000000149011612)" d="M 0,0 L 0,1 L 0.5,1 L 0,0 z "/>
          </g>
        </g>
      </g>
      <g id="use3324" transform="matrix(-0.80901700258255, 0.5877853035926819, -0.5877853035926819, -0.80901700258255, -5.196152287664297, -3.0000000447034836)">
        <g>
          <path transform="matrix(0.9510565,0.309017,-0.309017,0.9510565,0,-1)" d="M 0,0 L 0,1 L 0.5,1 L 0,0 z "/>
          <path transform="matrix(-0.9510565400123596, 0.30901703238487244, 0.30901703238487244, 0.9510565400123596, 0, -1.0000000149011612)" d="M 0,0 L 0,1 L 0.5,1 L 0,0 z "/>
        </g>
        <g>
          <g transform="matrix(0.30901703238487244, 0.9510565400123596, -0.9510565400123596, 0.30901703238487244, 0, 0)">
            <path transform="matrix(0.9510565,0.309017,-0.309017,0.9510565,0,-1)" d="M 0,0 L 0,1 L 0.5,1 L 0,0 z "/>
            <path transform="matrix(-0.9510565400123596, 0.30901703238487244, 0.30901703238487244, 0.9510565400123596, 0, -1.0000000149011612)" d="M 0,0 L 0,1 L 0.5,1 L 0,0 z "/>
          </g>
          <g transform="matrix(-0.80901700258255, 0.5877853035926819, -0.5877853035926819, -0.80901700258255, 0, 0)">
            <path transform="matrix(0.9510565,0.309017,-0.309017,0.9510565,0,-1)" d="M 0,0 L 0,1 L 0.5,1 L 0,0 z "/>
            <path transform="matrix(-0.9510565400123596, 0.30901703238487244, 0.30901703238487244, 0.9510565400123596, 0, -1.0000000149011612)" d="M 0,0 L 0,1 L 0.5,1 L 0,0 z "/>
          </g>
        </g>
        <g transform="matrix(-1, 0, 0, 1, 0, 0)">
          <g transform="matrix(0.30901703238487244, 0.9510565400123596, -0.9510565400123596, 0.30901703238487244, 0, 0)">
            <path transform="matrix(0.9510565,0.309017,-0.309017,0.9510565,0,-1)" d="M 0,0 L 0,1 L 0.5,1 L 0,0 z "/>
            <path transform="matrix(-0.9510565400123596, 0.30901703238487244, 0.30901703238487244, 0.9510565400123596, 0, -1.0000000149011612)" d="M 0,0 L 0,1 L 0.5,1 L 0,0 z "/>
          </g>
          <g transform="matrix(-0.80901700258255, 0.5877853035926819, -0.5877853035926819, -0.80901700258255, 0, 0)">
            <path transform="matrix(0.9510565,0.309017,-0.309017,0.9510565,0,-1)" d="M 0,0 L 0,1 L 0.5,1 L 0,0 z "/>
            <path transform="matrix(-0.9510565400123596, 0.30901703238487244, 0.30901703238487244, 0.9510565400123596, 0, -1.0000000149011612)" d="M 0,0 L 0,1 L 0.5,1 L 0,0 z "/>
          </g>
        </g>
      </g>
      <g id="use3326" transform="matrix(0.30901703238487244, 0.9510565400123596, -0.9510565400123596, 0.30901703238487244, -5.196152287664297, 3.0000000447034836)">
        <g>
          <path transform="matrix(0.9510565,0.309017,-0.309017,0.9510565,0,-1)" d="M 0,0 L 0,1 L 0.5,1 L 0,0 z "/>
          <path transform="matrix(-0.9510565400123596, 0.30901703238487244, 0.30901703238487244, 0.9510565400123596, 0, -1.0000000149011612)" d="M 0,0 L 0,1 L 0.5,1 L 0,0 z "/>
        </g>
        <g>
          <g transform="matrix(0.30901703238487244, 0.9510565400123596, -0.9510565400123596, 0.30901703238487244, 0, 0)">
            <path transform="matrix(0.9510565,0.309017,-0.309017,0.9510565,0,-1)" d="M 0,0 L 0,1 L 0.5,1 L 0,0 z "/>
            <path transform="matrix(-0.9510565400123596, 0.30901703238487244, 0.30901703238487244, 0.9510565400123596, 0, -1.0000000149011612)" d="M 0,0 L 0,1 L 0.5,1 L 0,0 z "/>
          </g>
          <g transform="matrix(-0.80901700258255, 0.5877853035926819, -0.5877853035926819, -0.80901700258255, 0, 0)">
            <path transform="matrix(0.9510565,0.309017,-0.309017,0.9510565,0,-1)" d="M 0,0 L 0,1 L 0.5,1 L 0,0 z "/>
            <path transform="matrix(-0.9510565400123596, 0.30901703238487244, 0.30901703238487244, 0.9510565400123596, 0, -1.0000000149011612)" d="M 0,0 L 0,1 L 0.5,1 L 0,0 z "/>
          </g>
        </g>
        <g transform="matrix(-1, 0, 0, 1, 0, 0)">
          <g transform="matrix(0.30901703238487244, 0.9510565400123596, -0.9510565400123596, 0.30901703238487244, 0, 0)">
            <path transform="matrix(0.9510565,0.309017,-0.309017,0.9510565,0,-1)" d="M 0,0 L 0,1 L 0.5,1 L 0,0 z "/>
            <path transform="matrix(-0.9510565400123596, 0.30901703238487244, 0.30901703238487244, 0.9510565400123596, 0, -1.0000000149011612)" d="M 0,0 L 0,1 L 0.5,1 L 0,0 z "/>
          </g>
          <g transform="matrix(-0.80901700258255, 0.5877853035926819, -0.5877853035926819, -0.80901700258255, 0, 0)">
            <path transform="matrix(0.9510565,0.309017,-0.309017,0.9510565,0,-1)" d="M 0,0 L 0,1 L 0.5,1 L 0,0 z "/>
            <path transform="matrix(-0.9510565400123596, 0.30901703238487244, 0.30901703238487244, 0.9510565400123596, 0, -1.0000000149011612)" d="M 0,0 L 0,1 L 0.5,1 L 0,0 z "/>
          </g>
        </g>
      </g>
      <g id="use3328" transform="matrix(0.30901703238487244, 0.9510565400123596, -0.9510565400123596, 0.30901703238487244, -3.0000000447034836, 5.196152287664297)">
        <g>
          <path transform="matrix(0.9510565,0.309017,-0.309017,0.9510565,0,-1)" d="M 0,0 L 0,1 L 0.5,1 L 0,0 z "/>
          <path transform="matrix(-0.9510565400123596, 0.30901703238487244, 0.30901703238487244, 0.9510565400123596, 0, -1.0000000149011612)" d="M 0,0 L 0,1 L 0.5,1 L 0,0 z "/>
        </g>
        <g>
          <g transform="matrix(0.30901703238487244, 0.9510565400123596, -0.9510565400123596, 0.30901703238487244, 0, 0)">
            <path transform="matrix(0.9510565,0.309017,-0.309017,0.9510565,0,-1)" d="M 0,0 L 0,1 L 0.5,1 L 0,0 z "/>
            <path transform="matrix(-0.9510565400123596, 0.30901703238487244, 0.30901703238487244, 0.9510565400123596, 0, -1.0000000149011612)" d="M 0,0 L 0,1 L 0.5,1 L 0,0 z "/>
          </g>
          <g transform="matrix(-0.80901700258255, 0.5877853035926819, -0.5877853035926819, -0.80901700258255, 0, 0)">
            <path transform="matrix(0.9510565,0.309017,-0.309017,0.9510565,0,-1)" d="M 0,0 L 0,1 L 0.5,1 L 0,0 z "/>
            <path transform="matrix(-0.9510565400123596, 0.30901703238487244, 0.30901703238487244, 0.9510565400123596, 0, -1.0000000149011612)" d="M 0,0 L 0,1 L 0.5,1 L 0,0 z "/>
          </g>
        </g>
        <g transform="matrix(-1, 0, 0, 1, 0, 0)">
          <g transform="matrix(0.30901703238487244, 0.9510565400123596, -0.9510565400123596, 0.30901703238487244, 0, 0)">
            <path transform="matrix(0.9510565,0.309017,-0.309017,0.9510565,0,-1)" d="M 0,0 L 0,1 L 0.5,1 L 0,0 z "/>
            <path transform="matrix(-0.9510565400123596, 0.30901703238487244, 0.30901703238487244, 0.9510565400123596, 0, -1.0000000149011612)" d="M 0,0 L 0,1 L 0.5,1 L 0,0 z "/>
          </g>
          <g transform="matrix(-0.80901700258255, 0.5877853035926819, -0.5877853035926819, -0.80901700258255, 0, 0)">
            <path transform="matrix(0.9510565,0.309017,-0.309017,0.9510565,0,-1)" d="M 0,0 L 0,1 L 0.5,1 L 0,0 z "/>
            <path transform="matrix(-0.9510565400123596, 0.30901703238487244, 0.30901703238487244, 0.9510565400123596, 0, -1.0000000149011612)" d="M 0,0 L 0,1 L 0.5,1 L 0,0 z "/>
          </g>
        </g>
      </g>
    </g>
    <g id="use3330" transform="matrix(-1, 0, 0, 1, 0, 0)">
      <g transform="matrix(1, 0, 0, 1, -6, 0)">
        <g>
          <path transform="matrix(0.9510565,0.309017,-0.309017,0.9510565,0,-1)" d="M 0,0 L 0,1 L 0.5,1 L 0,0 z "/>
          <path transform="matrix(-0.9510565400123596, 0.30901703238487244, 0.30901703238487244, 0.9510565400123596, 0, -1.0000000149011612)" d="M 0,0 L 0,1 L 0.5,1 L 0,0 z "/>
        </g>
        <g>
          <g transform="matrix(0.30901703238487244, 0.9510565400123596, -0.9510565400123596, 0.30901703238487244, 0, 0)">
            <path transform="matrix(0.9510565,0.309017,-0.309017,0.9510565,0,-1)" d="M 0,0 L 0,1 L 0.5,1 L 0,0 z "/>
            <path transform="matrix(-0.9510565400123596, 0.30901703238487244, 0.30901703238487244, 0.9510565400123596, 0, -1.0000000149011612)" d="M 0,0 L 0,1 L 0.5,1 L 0,0 z "/>
          </g>
          <g transform="matrix(-0.80901700258255, 0.5877853035926819, -0.5877853035926819, -0.80901700258255, 0, 0)">
            <path transform="matrix(0.9510565,0.309017,-0.309017,0.9510565,0,-1)" d="M 0,0 L 0,1 L 0.5,1 L 0,0 z "/>
            <path transform="matrix(-0.9510565400123596, 0.30901703238487244, 0.30901703238487244, 0.9510565400123596, 0, -1.0000000149011612)" d="M 0,0 L 0,1 L 0.5,1 L 0,0 z "/>
          </g>
        </g>
        <g transform="matrix(-1, 0, 0, 1, 0, 0)">
          <g transform="matrix(0.30901703238487244, 0.9510565400123596, -0.9510565400123596, 0.30901703238487244, 0, 0)">
            <path transform="matrix(0.9510565,0.309017,-0.309017,0.9510565,0,-1)" d="M 0,0 L 0,1 L 0.5,1 L 0,0 z "/>
            <path transform="matrix(-0.9510565400123596, 0.30901703238487244, 0.30901703238487244, 0.9510565400123596, 0, -1.0000000149011612)" d="M 0,0 L 0,1 L 0.5,1 L 0,0 z "/>
          </g>
          <g transform="matrix(-0.80901700258255, 0.5877853035926819, -0.5877853035926819, -0.80901700258255, 0, 0)">
            <path transform="matrix(0.9510565,0.309017,-0.309017,0.9510565,0,-1)" d="M 0,0 L 0,1 L 0.5,1 L 0,0 z "/>
            <path transform="matrix(-0.9510565400123596, 0.30901703238487244, 0.30901703238487244, 0.9510565400123596, 0, -1.0000000149011612)" d="M 0,0 L 0,1 L 0.5,1 L 0,0 z "/>
          </g>
        </g>
      </g>
      <g transform="matrix(-0.80901700258255, -0.5877853035926819, 0.5877853035926819, -0.80901700258255, -3.0000000447034836, -5.196152287664297)">
        <g>
          <path transform="matrix(0.9510565,0.309017,-0.309017,0.9510565,0,-1)" d="M 0,0 L 0,1 L 0.5,1 L 0,0 z "/>
          <path transform="matrix(-0.9510565400123596, 0.30901703238487244, 0.30901703238487244, 0.9510565400123596, 0, -1.0000000149011612)" d="M 0,0 L 0,1 L 0.5,1 L 0,0 z "/>
        </g>
        <g>
          <g transform="matrix(0.30901703238487244, 0.9510565400123596, -0.9510565400123596, 0.30901703238487244, 0, 0)">
            <path transform="matrix(0.9510565,0.309017,-0.309017,0.9510565,0,-1)" d="M 0,0 L 0,1 L 0.5,1 L 0,0 z "/>
            <path transform="matrix(-0.9510565400123596, 0.30901703238487244, 0.30901703238487244, 0.9510565400123596, 0, -1.0000000149011612)" d="M 0,0 L 0,1 L 0.5,1 L 0,0 z "/>
          </g>
          <g transform="matrix(-0.80901700258255, 0.5877853035926819, -0.5877853035926819, -0.80901700258255, 0, 0)">
            <path transform="matrix(0.9510565,0.309017,-0.309017,0.9510565,0,-1)" d="M 0,0 L 0,1 L 0.5,1 L 0,0 z "/>
            <path transform="matrix(-0.9510565400123596, 0.30901703238487244, 0.30901703238487244, 0.9510565400123596, 0, -1.0000000149011612)" d="M 0,0 L 0,1 L 0.5,1 L 0,0 z "/>
          </g>
        </g>
        <g transform="matrix(-1, 0, 0, 1, 0, 0)">
          <g transform="matrix(0.30901703238487244, 0.9510565400123596, -0.9510565400123596, 0.30901703238487244, 0, 0)">
            <path transform="matrix(0.9510565,0.309017,-0.309017,0.9510565,0,-1)" d="M 0,0 L 0,1 L 0.5,1 L 0,0 z "/>
            <path transform="matrix(-0.9510565400123596, 0.30901703238487244, 0.30901703238487244, 0.9510565400123596, 0, -1.0000000149011612)" d="M 0,0 L 0,1 L 0.5,1 L 0,0 z "/>
          </g>
          <g transform="matrix(-0.80901700258255, 0.5877853035926819, -0.5877853035926819, -0.80901700258255, 0, 0)">
            <path transform="matrix(0.9510565,0.309017,-0.309017,0.9510565,0,-1)" d="M 0,0 L 0,1 L 0.5,1 L 0,0 z "/>
            <path transform="matrix(-0.9510565400123596, 0.30901703238487244, 0.30901703238487244, 0.9510565400123596, 0, -1.0000000149011612)" d="M 0,0 L 0,1 L 0.5,1 L 0,0 z "/>
          </g>
        </g>
      </g>
      <g transform="matrix(-0.80901700258255, 0.5877853035926819, -0.5877853035926819, -0.80901700258255, -5.196152287664297, -3.0000000447034836)">
        <g>
          <path transform="matrix(0.9510565,0.309017,-0.309017,0.9510565,0,-1)" d="M 0,0 L 0,1 L 0.5,1 L 0,0 z "/>
          <path transform="matrix(-0.9510565400123596, 0.30901703238487244, 0.30901703238487244, 0.9510565400123596, 0, -1.0000000149011612)" d="M 0,0 L 0,1 L 0.5,1 L 0,0 z "/>
        </g>
        <g>
          <g transform="matrix(0.30901703238487244, 0.9510565400123596, -0.9510565400123596, 0.30901703238487244, 0, 0)">
            <path transform="matrix(0.9510565,0.309017,-0.309017,0.9510565,0,-1)" d="M 0,0 L 0,1 L 0.5,1 L 0,0 z "/>
            <path transform="matrix(-0.9510565400123596, 0.30901703238487244, 0.30901703238487244, 0.9510565400123596, 0, -1.0000000149011612)" d="M 0,0 L 0,1 L 0.5,1 L 0,0 z "/>
          </g>
          <g transform="matrix(-0.80901700258255, 0.5877853035926819, -0.5877853035926819, -0.80901700258255, 0, 0)">
            <path transform="matrix(0.9510565,0.309017,-0.309017,0.9510565,0,-1)" d="M 0,0 L 0,1 L 0.5,1 L 0,0 z "/>
            <path transform="matrix(-0.9510565400123596, 0.30901703238487244, 0.30901703238487244, 0.9510565400123596, 0, -1.0000000149011612)" d="M 0,0 L 0,1 L 0.5,1 L 0,0 z "/>
          </g>
        </g>
        <g transform="matrix(-1, 0, 0, 1, 0, 0)">
          <g transform="matrix(0.30901703238487244, 0.9510565400123596, -0.9510565400123596, 0.30901703238487244, 0, 0)">
            <path transform="matrix(0.9510565,0.309017,-0.309017,0.9510565,0,-1)" d="M 0,0 L 0,1 L 0.5,1 L 0,0 z "/>
            <path transform="matrix(-0.9510565400123596, 0.30901703238487244, 0.30901703238487244, 0.9510565400123596, 0, -1.0000000149011612)" d="M 0,0 L 0,1 L 0.5,1 L 0,0 z "/>
          </g>
          <g transform="matrix(-0.80901700258255, 0.5877853035926819, -0.5877853035926819, -0.80901700258255, 0, 0)">
            <path transform="matrix(0.9510565,0.309017,-0.309017,0.9510565,0,-1)" d="M 0,0 L 0,1 L 0.5,1 L 0,0 z "/>
            <path transform="matrix(-0.9510565400123596, 0.30901703238487244, 0.30901703238487244, 0.9510565400123596, 0, -1.0000000149011612)" d="M 0,0 L 0,1 L 0.5,1 L 0,0 z "/>
          </g>
        </g>
      </g>
      <g transform="matrix(0.30901703238487244, 0.9510565400123596, -0.9510565400123596, 0.30901703238487244, -5.196152287664297, 3.0000000447034836)">
        <g>
          <path transform="matrix(0.9510565,0.309017,-0.309017,0.9510565,0,-1)" d="M 0,0 L 0,1 L 0.5,1 L 0,0 z "/>
          <path transform="matrix(-0.9510565400123596, 0.30901703238487244, 0.30901703238487244, 0.9510565400123596, 0, -1.0000000149011612)" d="M 0,0 L 0,1 L 0.5,1 L 0,0 z "/>
        </g>
        <g>
          <g transform="matrix(0.30901703238487244, 0.9510565400123596, -0.9510565400123596, 0.30901703238487244, 0, 0)">
            <path transform="matrix(0.9510565,0.309017,-0.309017,0.9510565,0,-1)" d="M 0,0 L 0,1 L 0.5,1 L 0,0 z "/>
            <path transform="matrix(-0.9510565400123596, 0.30901703238487244, 0.30901703238487244, 0.9510565400123596, 0, -1.0000000149011612)" d="M 0,0 L 0,1 L 0.5,1 L 0,0 z "/>
          </g>
          <g transform="matrix(-0.80901700258255, 0.5877853035926819, -0.5877853035926819, -0.80901700258255, 0, 0)">
            <path transform="matrix(0.9510565,0.309017,-0.309017,0.9510565,0,-1)" d="M 0,0 L 0,1 L 0.5,1 L 0,0 z "/>
            <path transform="matrix(-0.9510565400123596, 0.30901703238487244, 0.30901703238487244, 0.9510565400123596, 0, -1.0000000149011612)" d="M 0,0 L 0,1 L 0.5,1 L 0,0 z "/>
          </g>
        </g>
        <g transform="matrix(-1, 0, 0, 1, 0, 0)">
          <g transform="matrix(0.30901703238487244, 0.9510565400123596, -0.9510565400123596, 0.30901703238487244, 0, 0)">
            <path transform="matrix(0.9510565,0.309017,-0.309017,0.9510565,0,-1)" d="M 0,0 L 0,1 L 0.5,1 L 0,0 z "/>
            <path transform="matrix(-0.9510565400123596, 0.30901703238487244, 0.30901703238487244, 0.9510565400123596, 0, -1.0000000149011612)" d="M 0,0 L 0,1 L 0.5,1 L 0,0 z "/>
          </g>
          <g transform="matrix(-0.80901700258255, 0.5877853035926819, -0.5877853035926819, -0.80901700258255, 0, 0)">
            <path transform="matrix(0.9510565,0.309017,-0.309017,0.9510565,0,-1)" d="M 0,0 L 0,1 L 0.5,1 L 0,0 z "/>
            <path transform="matrix(-0.9510565400123596, 0.30901703238487244, 0.30901703238487244, 0.9510565400123596, 0, -1.0000000149011612)" d="M 0,0 L 0,1 L 0.5,1 L 0,0 z "/>
          </g>
        </g>
      </g>
      <g transform="matrix(0.30901703238487244, 0.9510565400123596, -0.9510565400123596, 0.30901703238487244, -3.0000000447034836, 5.196152287664297)">
        <g>
          <path transform="matrix(0.9510565,0.309017,-0.309017,0.9510565,0,-1)" d="M 0,0 L 0,1 L 0.5,1 L 0,0 z "/>
          <path transform="matrix(-0.9510565400123596, 0.30901703238487244, 0.30901703238487244, 0.9510565400123596, 0, -1.0000000149011612)" d="M 0,0 L 0,1 L 0.5,1 L 0,0 z "/>
        </g>
        <g>
          <g transform="matrix(0.30901703238487244, 0.9510565400123596, -0.9510565400123596, 0.30901703238487244, 0, 0)">
            <path transform="matrix(0.9510565,0.309017,-0.309017,0.9510565,0,-1)" d="M 0,0 L 0,1 L 0.5,1 L 0,0 z "/>
            <path transform="matrix(-0.9510565400123596, 0.30901703238487244, 0.30901703238487244, 0.9510565400123596, 0, -1.0000000149011612)" d="M 0,0 L 0,1 L 0.5,1 L 0,0 z "/>
          </g>
          <g transform="matrix(-0.80901700258255, 0.5877853035926819, -0.5877853035926819, -0.80901700258255, 0, 0)">
            <path transform="matrix(0.9510565,0.309017,-0.309017,0.9510565,0,-1)" d="M 0,0 L 0,1 L 0.5,1 L 0,0 z "/>
            <path transform="matrix(-0.9510565400123596, 0.30901703238487244, 0.30901703238487244, 0.9510565400123596, 0, -1.0000000149011612)" d="M 0,0 L 0,1 L 0.5,1 L 0,0 z "/>
          </g>
        </g>
        <g transform="matrix(-1, 0, 0, 1, 0, 0)">
          <g transform="matrix(0.30901703238487244, 0.9510565400123596, -0.9510565400123596, 0.30901703238487244, 0, 0)">
            <path transform="matrix(0.9510565,0.309017,-0.309017,0.9510565,0,-1)" d="M 0,0 L 0,1 L 0.5,1 L 0,0 z "/>
            <path transform="matrix(-0.9510565400123596, 0.30901703238487244, 0.30901703238487244, 0.9510565400123596, 0, -1.0000000149011612)" d="M 0,0 L 0,1 L 0.5,1 L 0,0 z "/>
          </g>
          <g transform="matrix(-0.80901700258255, 0.5877853035926819, -0.5877853035926819, -0.80901700258255, 0, 0)">
            <path transform="matrix(0.9510565,0.309017,-0.309017,0.9510565,0,-1)" d="M 0,0 L 0,1 L 0.5,1 L 0,0 z "/>
            <path transform="matrix(-0.9510565400123596, 0.30901703238487244, 0.30901703238487244, 0.9510565400123596, 0, -1.0000000149011612)" d="M 0,0 L 0,1 L 0.5,1 L 0,0 z "/>
          </g>
        </g>
      </g>
    </g>
  </g>
  <path transform="matrix(0.9528737664222717, 0, 0, 1.0494569540023804, -5.527920722961426, -5.095195293426514)" style="font-size:16.63579941px;font-style:normal;font-weight:bold;fill:#ffffff;fill-opacity:1;stroke:none;stroke-width:1px;stroke-linecap:butt;stroke-linejoin:miter;stroke-opacity:1;font-family:Bitstream Vera Sans" d="M 19.673644,63.349144 L 19.673644,51.440901 L 22.013053,51.440901 L 26.886822,59.393268 L 26.886822,51.440901 L 29.120633,51.440901 L 29.120633,63.349144 L 26.708117,63.349144 L 21.907454,55.583605 L 21.907454,63.349144 L 19.673644,63.349144 z M 31.736222,63.349144 L 31.736222,51.538376 L 34.140615,51.538376 L 34.140615,61.342776 L 40.119106,61.342776 L 40.119106,63.349144 L 31.736222,63.349144 z " id="text3367"/>
</svg>